PathFileType	3	(X/Y/Z)	C:\Users\koon_\Desktop\
DataRate	CameraRate	NumFrames	NumMarkers	Units	OrigDataRate	OrigDataStartFrame	OrigNumFrames
100.0	100.0	7	27	mm	100.0	2026	2700	
Frame#	Time	get:LFHD			get:RFHD			get:LBHD			get:RBHD			get:C7			get:T10			get:CLAV			get:STRN			get:RBAK			get:LSHO			get:LUPA			get:LELB			get:LFRA			get:LWRA			get:LWRB			get:LFIN			get:RSHO			get:RUPA			get:RELB			get:RFRA			get:RWRA			get:RWRB			get:RFIN			get:LASI			get:RASI			get:LPSI			get:RPSI			
		X1	Y1	Z1	X2	Y2	Z2	X3	Y3	Z3	X4	Y4	Z4	X5	Y5	Z5	X6	Y6	Z6	X7	Y7	Z7	X8	Y8	Z8	X9	Y9	Z9	X10	Y10	Z10	X11	Y11	Z11	X12	Y12	Z12	X13	Y13	Z13	X14	Y14	Z14	X15	Y15	Z15	X16	Y16	Z16	X17	Y17	Z17	X18	Y18	Z18	X19	Y19	Z19	X20	Y20	Z20	X21	Y21	Z21	X22	Y22	Z22	X23	Y23	Z23	X24	Y24	Z24	X25	Y25	Z25	X26	Y26	Z26	X27	Y27	Z27	
2026	20.25	66.237907	1559.2507	-32.845448	-74.937462	1555.2936	-37.113171	47.28928	1553.8915	-194.11951	-81.358749	1525.7386	-201.98067	0.63749278	1369.0887	-204.97574	-4.7733994	1156.8214	-232.80678	4.180953	1281.7527	-11.006825	11.921519	1087.145	40.251133	-77.950699	1299.8485	-219.14995	114.84442	1388.7062	-116.34435	212.58614	1263.1595	-108.5267	234.20737	1076.2767	-134.12695	241.76927	944.00568	-63.11935	221.52171	866.22943	-35.813133	247.7814	859.99072	-117.10281	287.97992	801.50916	-47.815178	-114.7131	1385.2389	-100.89275	-210.86136	1177.3491	-73.461182	-226.43974	1068.6378	-147.42166	-224.39879	1008.4918	-69.042534	-211.47786	858.57489	-60.740524	-240.17065	857.7265	-136.5659	-274.17078	797.3595	-65.470596	133.03471	892.23993	0.93950152	-129.31746	878.80444	-4.703723	48.008007	955.19574	-213.42157	-41.963497	952.89307	-217.18027
2027	20.26	65.916298	1559.3104	-32.269058	-75.248306	1555.2527	-36.846889	47.258503	1553.9989	-193.61574	-81.336029	1525.7535	-201.62001	0.70509416	1371.5696	-205.59317	-4.673245	1159.1444	-232.58311	4.4874458	1283.5096	-10.208777	12.154516	1088.4535	40.633068	-76.87886	1302.9735	-219.02135	111.6592	1393.1497	-115.61221	210.72865	1269.2244	-107.64039	233.12291	1082.4619	-134.27103	241.17052	949.87946	-64.078453	221.14409	871.96448	-36.767094	246.96431	865.93799	-118.339	287.68771	807.35144	-49.149517	-111.18584	1389.4561	-101.63007	-209.79506	1182.9075	-73.294525	-227.09639	1074.6021	-147.57355	-223.30255	1014.2293	-69.280457	-210.75148	864.19495	-61.569424	-240.51102	863.6087	-137.06155	-273.69162	803.18433	-65.60672	133.09111	892.56726	0.74797171	-129.1884	879.03583	-4.9057131	47.925163	955.42108	-213.52499	-42.063614	953.07428	-217.14044
2028	20.27	65.606529	1559.3815	-31.671055	-75.542923	1555.1842	-36.546108	47.284775	1554.1672	-193.07141	-81.276451	1525.7837	-201.28758	0.43714654	1373.5963	-205.87503	-4.6219649	1161.4087	-232.42253	4.9766822	1285.1948	-9.0229177	12.380416	1089.7091	40.810558	-75.803001	1306.0045	-218.866	108.41476	1397.2706	-114.84421	208.79079	1274.985	-106.46212	232.34195	1088.3044	-133.96718	240.5032	955.43457	-64.751106	220.86714	877.18976	-37.741383	246.48183	871.57788	-119.3747	287.43793	812.7049	-50.442772	-107.90788	1393.1354	-101.39132	-208.75601	1188.1167	-73.054207	-227.81229	1080.2552	-147.69737	-222.34245	1019.5363	-69.685234	-209.93091	869.51331	-62.416019	-241.35577	869.02057	-137.13565	-273.03842	808.46997	-65.175476	133.14809	892.98438	0.58440983	-129.0945	879.32495	-4.9125781	47.859966	955.7937	-213.74702	-42.188137	953.34857	-217.15536
2029	20.28	65.335663	1559.4327	-30.909788	-75.806885	1555.0342	-36.149204	47.38871	1554.3984	-192.35225	-81.128159	1525.8224	-200.94376	0.09058179	1375.5369	-206.15872	-4.6848035	1163.5081	-232.4864	5.4621572	1286.7915	-7.875124	12.655613	1090.8651	40.873299	-74.970642	1308.8866	-218.76379	105.38018	1401.0057	-114.20238	206.95308	1280.2957	-104.99611	231.94537	1093.7662	-133.30692	240.00055	960.57355	-65.100555	220.61716	881.86926	-38.664242	246.63434	876.93201	-120.09045	287.20715	817.32745	-51.386841	-105.00372	1396.5055	-101.446	-207.94186	1192.7948	-72.767548	-228.31525	1085.4393	-147.79613	-221.5743	1024.4312	-69.838814	-209.12379	874.46674	-63.135185	-242.78174	874.12756	-136.93129	-272.32535	813.2735	-64.267975	133.18459	893.47394	0.30362755	-128.92554	879.66486	-5.1014152	47.791245	956.21973	-214.02826	-42.314323	953.64233	-217.20395
2030	20.29	64.988777	1559.486	-30.024218	-76.100891	1554.8699	-35.744389	47.601162	1554.6672	-191.53267	-80.854393	1525.9196	-200.70514	-0.11970738	1377.5131	-206.20882	-4.7032509	1165.4402	-232.58348	6.1136875	1288.3693	-6.6011906	12.827013	1091.9036	40.690186	-74.227585	1311.4663	-218.67845	102.70236	1404.2361	-113.53835	205.36137	1285.0043	-103.4474	231.96404	1098.7441	-132.44794	239.63089	965.22101	-65.089226	220.36537	886.09125	-39.551689	247.71765	881.85278	-120.58268	287.02548	821.15692	-51.693462	-102.30466	1399.5474	-101.24408	-207.33801	1196.954	-72.355431	-229.86998	1090.0485	-147.33627	-221.14444	1028.8451	-70.086716	-208.60812	878.84662	-63.830704	-244.58142	878.7395	-136.53865	-271.75189	817.44196	-62.907009	133.28317	893.94324	0.010349238	-128.84834	880.05164	-5.1011662	47.685585	956.68579	-214.30507	-42.441761	954.00378	-217.30653
2031	20.3	64.685333	1559.536	-29.12178	-76.361633	1554.8121	-35.319881	47.921478	1554.8452	-190.67946	-80.455376	1526.0251	-200.33533	-0.19286484	1379.3173	-206.1064	-4.7385864	1167.1362	-232.54517	6.640017	1289.7982	-5.7235184	13.041615	1092.7971	40.409512	-73.612671	1313.6996	-218.61005	100.54277	1406.9354	-112.67255	204.01517	1288.9768	-101.81217	232.46974	1103.2152	-131.51903	239.53369	969.29297	-64.826187	220.35199	889.65802	-40.472515	249.81004	886.17596	-120.64552	286.90265	824.13092	-51.425407	-99.769669	1402.1322	-98.727249	-206.92384	1200.5264	-72.002243	-231.35907	1094.2472	-147.31323	-221.10777	1032.8292	-70.255951	-208.3992	882.76917	-64.273399	-246.81836	882.8504	-135.86188	-271.33615	821.07605	-61.413692	133.34306	894.35144	-0.29180908	-128.73892	880.40155	-5.2754259	47.57901	957.17883	-214.72003	-42.559349	954.31927	-217.3699
2032	20.31	64.433014	1559.5442	-28.147751	-76.601952	1554.7361	-34.917713	48.282383	1555.0161	-189.79416	-80.050812	1526.1168	-199.94736	-0.057772484	1380.7738	-205.92276	-4.7426939	1168.6537	-232.58609	6.9656372	1290.9102	-5.1064076	13.222867	1093.4423	40.144112	-73.072777	1315.5439	-218.533	98.849319	1409.0975	-111.8137	203.05742	1292.1558	-100.31835	233.39346	1106.9663	-130.62183	239.94667	972.69312	-64.44323	220.59793	892.65546	-41.330261	252.60388	889.81781	-120.408	287.10358	826.44232	-50.60704	-97.796059	1404.2389	-98.207932	-206.64699	1203.5709	-71.770493	-233.01033	1097.7994	-147.17297	-221.45811	1036.2731	-70.080849	-208.68517	886.04224	-64.439018	-249.20367	886.46313	-135.00613	-271.40137	824.16553	-59.803333	133.40225	894.72852	-0.65752447	-128.72537	880.74377	-5.4312444	47.468128	957.54132	-215.05014	-42.667011	954.67572	-217.6362
